<svg width="52" height="52" viewBox="0 0 52 52" fill="none" xmlns="http://www.w3.org/2000/svg">
<path fill-rule="evenodd" clip-rule="evenodd" d="M48.0137 51.8242C47.667 51.9282 47.2915 51.986 46.8871 51.9975C46.4942 52.0091 46.0783 51.9802 45.6392 51.9109C45.2001 51.8415 44.7437 51.7375 44.27 51.5989C43.7847 51.4602 43.2878 51.2869 42.7794 51.0789C42.2595 50.8709 41.728 50.6283 41.1849 50.3509C40.6418 50.0852 40.0814 49.7905 39.5037 49.467C38.9375 49.1434 38.354 48.7968 37.7532 48.427C37.1524 48.0573 36.5457 47.6644 35.9333 47.2484C35.3209 46.844 34.697 46.4165 34.0615 45.9658C33.426 45.5267 32.7847 45.0703 32.1377 44.5965C31.5022 44.1343 30.8551 43.6606 30.1965 43.1753C29.5494 42.6784 28.8966 42.1815 28.238 41.6847C27.5794 41.1878 26.9208 40.6852 26.2621 40.1768C25.6035 39.6799 24.9449 39.1772 24.2863 38.6688C23.6393 38.172 22.9922 37.6751 22.3451 37.1782C21.6981 36.6929 21.0568 36.2076 20.4213 35.7223C19.7858 35.2485 19.1561 34.7863 18.5321 34.3357C17.9082 33.8735 17.2958 33.4229 16.6949 32.9838C16.0825 32.5447 15.4875 32.1171 14.9098 31.7012C14.3205 31.2736 13.7427 30.8576 13.1766 30.4532C12.6219 30.0488 12.0731 29.6501 11.53 29.2573C10.9985 28.8644 10.4728 28.4773 9.95284 28.096C9.44444 27.7147 8.95336 27.3334 8.47963 26.9521C7.99433 26.5823 7.52637 26.2125 7.07574 25.8428C6.62511 25.4846 6.19759 25.1206 5.79318 24.7508C5.37722 24.3926 4.98436 24.0344 4.61462 23.6762C4.23331 23.3296 3.87512 22.9771 3.54004 22.6189C3.20496 22.2607 2.89298 21.9083 2.60412 21.5616C2.31525 21.2034 2.04372 20.8452 1.78952 20.487C1.54687 20.1288 1.32733 19.7706 1.13091 19.4124C0.934478 19.0542 0.761159 18.6902 0.610949 18.3205C0.460739 17.9623 0.339416 17.5983 0.246979 17.2285C0.154543 16.8472 0.0852151 16.4659 0.0389968 16.0846C0.00433297 15.7033 -0.00722162 15.3219 0.00433297 14.9406C0.0274422 14.5478 0.0678832 14.1549 0.125656 13.762C0.194984 13.3691 0.287421 12.9763 0.402966 12.5834C0.518512 12.1905 0.657167 11.7977 0.818932 11.4048C0.969141 11.0119 1.14246 10.6191 1.33889 10.2262C1.54687 9.84486 1.76641 9.46355 1.9975 9.08223C2.22859 8.70092 2.48279 8.32538 2.7601 7.95562C3.02586 7.58586 3.30895 7.22766 3.60937 6.88101C3.90979 6.5228 4.22176 6.17615 4.54529 5.84106C4.86882 5.49441 5.2039 5.16509 5.55054 4.8531C5.90873 4.52956 6.2727 4.22335 6.64245 3.93448C7.01219 3.63405 7.38772 3.35095 7.76902 3.08519C8.15032 2.81942 8.54318 2.57099 8.94759 2.33989C9.34044 2.09723 9.74485 1.87191 10.1608 1.66392C10.5652 1.45593 10.9754 1.27105 11.3914 1.10928C11.8073 0.935956 12.2233 0.78574 12.6393 0.658635C13.0552 0.519975 13.4712 0.404425 13.8872 0.311985C14.3031 0.2311 14.7191 0.16177 15.1351 0.103995C15.5395 0.057775 15.9497 0.0288875 16.3656 0.0173325C16.7816 -0.0057775 17.1976 -0.0057775 17.6135 0.0173325C18.0179 0.0404425 18.4281 0.0751075 18.8441 0.121328C19.2485 0.179103 19.6587 0.248433 20.0747 0.329318C20.4791 0.410203 20.8835 0.502643 21.2879 0.606638C21.6923 0.710633 22.0967 0.826183 22.5011 0.953288C22.9055 1.09195 23.3099 1.23639 23.7144 1.3866C24.1188 1.53682 24.5174 1.69859 24.9103 1.87191C25.3147 2.04524 25.7133 2.22434 26.1062 2.40922C26.499 2.5941 26.8919 2.78476 27.2847 2.98119C27.6776 3.18918 28.0704 3.39717 28.4633 3.60516C28.8446 3.81315 29.2317 4.02692 29.6245 4.24646C30.0058 4.46601 30.3871 4.69133 30.7684 4.92243C31.1497 5.15353 31.531 5.37886 31.9123 5.5984C32.2936 5.8295 32.6692 6.0606 33.0389 6.2917C33.4087 6.5228 33.7784 6.7539 34.1482 6.985C34.5179 7.2161 34.8876 7.4472 35.2574 7.6783C35.6156 7.9094 35.9738 8.14628 36.332 8.38893C36.6902 8.62003 37.0426 8.86269 37.3892 9.1169C37.7474 9.35955 38.0998 9.60799 38.4465 9.8622C38.7815 10.1164 39.1224 10.3764 39.469 10.6422C39.8041 10.9195 40.1334 11.2026 40.457 11.4915C40.792 11.7688 41.1156 12.0634 41.4275 12.3754C41.7511 12.6758 42.0688 12.9878 42.3808 13.3114C42.6928 13.6349 42.999 13.97 43.2994 14.3167C43.5998 14.6749 43.8945 15.0388 44.1833 15.4086C44.4722 15.7899 44.761 16.1828 45.0499 16.5872C45.3272 16.9916 45.5988 17.4134 45.8645 17.8525C46.1303 18.28 46.3902 18.7307 46.6444 19.2044C46.8986 19.6782 47.1471 20.1693 47.3897 20.6777C47.6324 21.1861 47.8692 21.7176 48.1003 22.2723C48.3314 22.8154 48.5567 23.3816 48.7763 23.9709C48.9842 24.5602 49.1922 25.1726 49.4002 25.8081C49.5966 26.4321 49.7873 27.0734 49.9722 27.732C50.1455 28.3906 50.313 29.0608 50.4748 29.7426C50.6366 30.4243 50.7868 31.1119 50.9254 31.8052C51.0641 32.4869 51.1912 33.1802 51.3067 33.8851C51.4223 34.5784 51.5263 35.2717 51.6187 35.965C51.6996 36.6583 51.7689 37.3458 51.8267 38.0275C51.896 38.7093 51.9422 39.3795 51.9653 40.0381C51.9884 40.6967 52 41.3438 52 41.9793C51.9884 42.6149 51.9653 43.2273 51.9307 43.8166C51.8845 44.4059 51.8267 44.9779 51.7574 45.5325C51.6765 46.0756 51.5783 46.5956 51.4627 47.0924C51.3356 47.5893 51.197 48.0573 51.0467 48.4964C50.885 48.9239 50.7001 49.3168 50.4921 49.675C50.2841 50.0447 50.0588 50.3683 49.8162 50.6456C49.562 50.9345 49.2847 51.1771 48.9842 51.3736C48.6838 51.57 48.3603 51.7202 48.0137 51.8242Z" fill="#0364BD"/>
</svg>
