<svg width="62" height="63" viewBox="0 0 62 63" fill="none" xmlns="http://www.w3.org/2000/svg">
<path fill-rule="evenodd" clip-rule="evenodd" d="M58.5438 49.2605C58.1718 49.8205 57.7723 50.3594 57.3452 50.8773C56.9044 51.3953 56.4428 51.8922 55.9607 52.3682C55.4785 52.8441 54.9688 53.3061 54.4315 53.754C53.908 54.202 53.3638 54.6219 52.7989 55.0139C52.2341 55.4198 51.6486 55.8118 51.0424 56.1898C50.45 56.5677 49.8438 56.9247 49.2239 57.2606C48.6039 57.5966 47.9771 57.9186 47.3434 58.2265C46.7234 58.5345 46.0897 58.8215 45.4422 59.0874C44.8085 59.3674 44.1679 59.6334 43.5204 59.8853C42.8729 60.1373 42.2254 60.3683 41.5779 60.5783C40.9304 60.8022 40.2829 61.0052 39.6354 61.1872C38.9879 61.3832 38.3335 61.5582 37.6722 61.7121C37.0247 61.8661 36.3703 62.0131 35.709 62.1531C35.0477 62.2791 34.3865 62.3911 33.7252 62.4891C33.0639 62.587 32.3957 62.671 31.7207 62.741C31.0456 62.811 30.3706 62.867 29.6955 62.909C29.0342 62.951 28.3592 62.979 27.6704 62.993C26.9953 63.007 26.3203 63 25.6452 62.972C24.9701 62.944 24.302 62.902 23.6407 62.846C22.9656 62.776 22.3044 62.692 21.6569 62.594C20.9956 62.4821 20.3481 62.3561 19.7144 62.2161C19.0669 62.0621 18.44 61.8871 17.8338 61.6911C17.2139 61.4812 16.6077 61.2502 16.0153 60.9982C15.4229 60.7462 14.8512 60.4663 14.3001 60.1583C13.7491 59.8503 13.2118 59.5074 12.6883 59.1294C12.1648 58.7655 11.6619 58.3665 11.1797 57.9326C10.6976 57.5126 10.2291 57.0647 9.77452 56.5887C9.33367 56.1268 8.90659 55.6368 8.49329 55.1189C8.07999 54.6009 7.68047 54.069 7.29473 53.5231C6.90898 52.9771 6.5439 52.4172 6.19948 51.8432C5.84129 51.2693 5.50376 50.6884 5.1869 50.1004C4.87004 49.4985 4.56006 48.8966 4.25698 48.2946C3.96767 47.6787 3.69214 47.0628 3.43038 46.4468C3.16863 45.8309 2.91376 45.215 2.66578 44.599C2.43157 43.9691 2.21115 43.3462 2.0045 42.7302C1.79785 42.1003 1.60498 41.4704 1.42588 40.8405C1.24678 40.2245 1.08835 39.6016 0.950587 38.9717C0.799044 38.3277 0.668167 37.6908 0.557954 37.0609C0.433964 36.431 0.337527 35.801 0.268644 35.1711C0.185984 34.5412 0.12399 33.9042 0.0826598 33.2603C0.0413299 32.6304 0.0137766 31.9934 0 31.3495C0 30.7196 0.0137766 30.0897 0.0413299 29.4597C0.0688831 28.8158 0.117101 28.1789 0.185984 27.5489C0.254868 26.919 0.337527 26.2821 0.433964 25.6381C0.5304 25.0082 0.647502 24.3783 0.785268 23.7484C0.923034 23.1184 1.07458 22.4885 1.2399 21.8586C1.40522 21.2286 1.5912 20.6057 1.79785 19.9898C1.99072 19.3598 2.20426 18.7369 2.43846 18.121C2.67267 17.5051 2.91376 16.8891 3.16174 16.2732C3.42349 15.6573 3.69902 15.0483 3.98833 14.4464C4.27764 13.8445 4.58073 13.2425 4.89759 12.6406C5.21445 12.0527 5.54509 11.4717 5.88951 10.8978C6.23392 10.3239 6.59212 9.76392 6.96409 9.21798C7.33606 8.67204 7.72869 8.14709 8.14199 7.64315C8.54151 7.12521 8.9617 6.62826 9.40255 6.15232C9.8434 5.69037 10.3049 5.24942 10.7871 4.82946C11.2555 4.39551 11.7446 3.99656 12.2543 3.6326C12.764 3.26864 13.2944 2.92567 13.8455 2.60371C14.3828 2.29574 14.9408 2.02278 15.5194 1.7848C16.098 1.53283 16.6904 1.31585 17.2966 1.13387C17.9027 0.937896 18.5158 0.769914 19.1357 0.62993C19.7695 0.489946 20.4032 0.377958 21.0369 0.293967C21.6844 0.195978 22.3388 0.125986 23.0001 0.0839907C23.6476 0.0419953 24.302 0.0139984 24.9633 0C25.6245 0 26.2858 0.0139984 26.9471 0.0419953C27.5946 0.0699922 28.249 0.111988 28.9103 0.167981C29.5715 0.223975 30.219 0.293967 30.8528 0.377958C31.5003 0.461949 32.1478 0.566937 32.7953 0.692923C33.429 0.804911 34.0558 0.930896 34.6758 1.07088C35.3095 1.22486 35.9363 1.38585 36.5563 1.55383C37.1625 1.72181 37.7686 1.91079 38.3748 2.12076C38.981 2.31674 39.5871 2.52672 40.1933 2.75069C40.7857 2.98867 41.3712 3.23364 41.9498 3.48561C42.5285 3.75158 43.1071 4.02455 43.6857 4.30452C44.2505 4.59849 44.8154 4.90645 45.3802 5.22842C45.9313 5.53638 46.4823 5.86535 47.0334 6.21531C47.5707 6.56527 48.1011 6.92923 48.6246 7.30719C49.1481 7.68515 49.6648 8.0771 50.1745 8.48306C50.6704 8.88901 51.1595 9.30897 51.6417 9.74292C52.1239 10.1769 52.5923 10.6248 53.0469 11.0868C53.4878 11.5487 53.9217 12.0247 54.3488 12.5146C54.7759 13.0186 55.1823 13.5295 55.568 14.0474C55.9538 14.5654 56.3189 15.1043 56.6633 15.6643C57.0215 16.2102 57.359 16.7701 57.6759 17.3441C57.9789 17.932 58.2751 18.5269 58.5645 19.1289C58.84 19.7308 59.0949 20.3467 59.3291 20.9767C59.577 21.6066 59.8043 22.2435 60.011 22.8875C60.2176 23.5314 60.4105 24.1893 60.5896 24.8612C60.7687 25.5192 60.9271 26.1911 61.0649 26.877C61.2027 27.5629 61.3267 28.2489 61.4369 28.9348C61.5471 29.6347 61.6435 30.3416 61.7262 31.0555C61.8088 31.7555 61.8708 32.4694 61.9122 33.1973C61.9535 33.9112 61.9811 34.6252 61.9948 35.3391C62.0086 36.053 61.9948 36.7669 61.9535 37.4808C61.9259 38.1948 61.8708 38.9087 61.7882 39.6226C61.7193 40.3225 61.616 41.0154 61.4782 41.7014C61.3542 42.3873 61.2027 43.0662 61.0236 43.7381C60.8307 44.3961 60.6172 45.04 60.383 45.6699C60.135 46.3139 59.8595 46.9298 59.5564 47.5177C59.2533 48.1197 58.9158 48.7006 58.5438 49.2605Z" fill="#0364BD"/>
</svg>
