<svg width="206" height="206" viewBox="0 0 206 206" fill="none" xmlns="http://www.w3.org/2000/svg">
<path fill-rule="evenodd" clip-rule="evenodd" d="M187.599 194.671C186.18 195.953 184.692 197.12 183.136 198.173C181.533 199.225 179.863 200.164 178.123 200.988C176.384 201.766 174.576 202.475 172.699 203.116C170.776 203.711 168.831 204.215 166.863 204.627C164.849 204.993 162.789 205.291 160.683 205.519C158.623 205.748 156.495 205.886 154.297 205.931C152.146 206.023 149.972 206.023 147.775 205.931C145.577 205.84 143.357 205.68 141.114 205.451C138.871 205.222 136.628 204.947 134.385 204.627C132.142 204.306 129.922 203.917 127.725 203.46C125.528 203.002 123.331 202.521 121.134 202.018C118.982 201.514 116.854 200.965 114.748 200.37C112.642 199.775 110.583 199.157 108.569 198.516C106.554 197.875 104.563 197.211 102.595 196.525C100.627 195.792 98.7041 195.037 96.8273 194.259C94.9048 193.527 93.028 192.726 91.197 191.856C89.366 191.032 87.5579 190.185 85.7727 189.315C83.9417 188.4 82.1565 187.462 80.417 186.5C78.6776 185.539 76.9382 184.555 75.1987 183.548C73.4593 182.495 71.7427 181.419 70.0491 180.321C68.3554 179.222 66.6617 178.101 64.9681 176.956C63.2744 175.766 61.5807 174.553 59.8871 173.317C58.1934 172.082 56.5226 170.823 54.8747 169.541C53.1811 168.214 51.4874 166.863 49.7937 165.49C48.1001 164.117 46.4064 162.698 44.7128 161.233C43.0191 159.768 41.3254 158.281 39.6318 156.77C37.9381 155.214 36.2673 153.657 34.6194 152.101C32.9258 150.499 31.2779 148.851 29.6758 147.158C28.0736 145.51 26.4944 143.816 24.9381 142.077C23.3817 140.337 21.8712 138.575 20.4064 136.79C18.9416 134.959 17.5455 133.128 16.218 131.297C14.8447 129.42 13.5402 127.521 12.3042 125.598C11.1141 123.676 9.96974 121.73 8.87114 119.762C7.81832 117.748 6.83417 115.734 5.91867 113.72C5.00318 111.66 4.17923 109.6 3.44684 107.54C2.76022 105.435 2.16514 103.306 1.66162 101.155C1.1581 99.0034 0.769016 96.8291 0.494367 94.632C0.219719 92.4348 0.0595072 90.2148 0.0137324 87.9718C-0.0320423 85.7289 0.0366198 83.4631 0.219719 81.1744C0.402818 78.9315 0.700353 76.6886 1.11233 74.4456C1.5243 72.1569 2.00493 69.914 2.55423 67.7169C3.1493 65.4739 3.83592 63.2539 4.61409 61.0568C5.39226 58.8596 6.2391 56.7082 7.15459 54.6026C8.11586 52.497 9.1229 50.4372 10.1757 48.4231C11.2743 46.4091 12.4416 44.4408 13.6775 42.5183C14.9134 40.5958 16.218 38.7419 17.5912 36.9568C18.9187 35.2173 20.3148 33.5237 21.7796 31.8758C23.2444 30.2738 24.7779 28.7632 26.38 27.3442C27.9363 25.8795 29.5384 24.5291 31.1863 23.2932C32.8342 22.0573 34.5279 20.9359 36.2673 19.9288C38.0068 18.876 39.7691 17.9377 41.5543 17.1137C43.3395 16.2898 45.1705 15.5574 47.0473 14.9166C48.924 14.2758 50.8237 13.6807 52.7462 13.1314C54.6688 12.6279 56.6371 12.193 58.6512 11.8268C60.6195 11.4607 62.6336 11.1402 64.6934 10.8656C66.7533 10.5452 68.836 10.2934 70.9417 10.1103C73.0473 9.88146 75.1758 9.69836 77.3273 9.56104C79.4787 9.37794 81.6759 9.21773 83.9188 9.08041C86.116 8.94309 88.3361 8.80577 90.579 8.66845C92.8678 8.53112 95.1565 8.3938 97.4452 8.25648C99.734 8.07338 102.068 7.89029 104.449 7.70719C106.783 7.47832 109.141 7.22657 111.521 6.95192C113.901 6.67728 116.304 6.35686 118.73 5.99067C121.157 5.62448 123.583 5.2354 126.009 4.82343C128.435 4.45724 130.838 4.06816 133.218 3.6562C135.644 3.24423 138.047 2.85515 140.428 2.48896C142.808 2.12277 145.165 1.77946 147.5 1.45905C149.834 1.13863 152.123 0.863984 154.366 0.635114C156.609 0.406244 158.829 0.246035 161.026 0.154487C163.178 0.0171652 165.283 -0.0286087 167.343 0.0171652C169.403 0.0629392 171.394 0.200261 173.317 0.429131C175.194 0.658001 177.025 1.00131 178.81 1.45905C180.595 1.91678 182.266 2.48896 183.822 3.17557C185.424 3.90795 186.935 4.75477 188.354 5.71602C189.727 6.67728 191.009 7.79874 192.199 9.08041C193.389 10.3621 194.488 11.804 195.495 13.4061C196.502 14.9624 197.417 16.656 198.241 18.487C199.065 20.3179 199.798 22.2862 200.438 24.3918C201.079 26.4516 201.651 28.6259 202.155 30.9146C202.704 33.2033 203.162 35.5835 203.528 38.0553C203.894 40.5271 204.215 43.0676 204.489 45.6767C204.764 48.3316 204.993 51.0323 205.176 53.7787C205.405 56.5709 205.565 59.4089 205.657 62.2926C205.748 65.1764 205.817 68.1059 205.863 71.0813C205.954 74.0566 206 77.0548 206 80.0758C206 83.0969 206 86.1409 206 89.2077C206 92.2746 205.977 95.3415 205.931 98.4083C205.931 101.475 205.931 104.542 205.931 107.609C205.886 110.676 205.84 113.72 205.794 116.741C205.748 119.762 205.68 122.76 205.588 125.735C205.542 128.711 205.451 131.64 205.313 134.524C205.176 137.408 204.993 140.246 204.764 143.038C204.581 145.83 204.329 148.577 204.009 151.277C203.688 153.978 203.345 156.587 202.979 159.105C202.567 161.668 202.086 164.14 201.537 166.52C201.033 168.9 200.438 171.189 199.752 173.386C199.065 175.629 198.31 177.735 197.486 179.703C196.662 181.717 195.746 183.617 194.739 185.402C193.732 187.187 192.634 188.858 191.444 190.414C190.254 191.97 188.972 193.389 187.599 194.671Z" fill="#0364BD"/>
</svg>
